<svg width="142" height="109" viewBox="0 0 142 109" fill="none" xmlns="http://www.w3.org/2000/svg">
<path d="M5 10C7.76142 10 10 7.76142 10 5C10 2.23858 7.76142 0 5 0C2.23858 0 0 2.23858 0 5C0 7.76142 2.23858 10 5 10Z" fill="black"/>
<path d="M38 10C40.7614 10 43 7.76142 43 5C43 2.23858 40.7614 0 38 0C35.2386 0 33 2.23858 33 5C33 7.76142 35.2386 10 38 10Z" fill="black"/>
<path d="M71 10C73.7614 10 76 7.76142 76 5C76 2.23858 73.7614 0 71 0C68.2386 0 66 2.23858 66 5C66 7.76142 68.2386 10 71 10Z" fill="black"/>
<path d="M104 10C106.761 10 109 7.76142 109 5C109 2.23858 106.761 0 104 0C101.239 0 99 2.23858 99 5C99 7.76142 101.239 10 104 10Z" fill="black"/>
<path d="M137 10C139.761 10 142 7.76142 142 5C142 2.23858 139.761 0 137 0C134.239 0 132 2.23858 132 5C132 7.76142 134.239 10 137 10Z" fill="black"/>
<path d="M5 43C7.76142 43 10 40.7614 10 38C10 35.2386 7.76142 33 5 33C2.23858 33 0 35.2386 0 38C0 40.7614 2.23858 43 5 43Z" fill="black"/>
<path d="M38 43C40.7614 43 43 40.7614 43 38C43 35.2386 40.7614 33 38 33C35.2386 33 33 35.2386 33 38C33 40.7614 35.2386 43 38 43Z" fill="black"/>
<path d="M71 43C73.7614 43 76 40.7614 76 38C76 35.2386 73.7614 33 71 33C68.2386 33 66 35.2386 66 38C66 40.7614 68.2386 43 71 43Z" fill="black"/>
<path d="M104 43C106.761 43 109 40.7614 109 38C109 35.2386 106.761 33 104 33C101.239 33 99 35.2386 99 38C99 40.7614 101.239 43 104 43Z" fill="black"/>
<path d="M137 43C139.761 43 142 40.7614 142 38C142 35.2386 139.761 33 137 33C134.239 33 132 35.2386 132 38C132 40.7614 134.239 43 137 43Z" fill="black"/>
<path d="M5 76C7.76142 76 10 73.7614 10 71C10 68.2386 7.76142 66 5 66C2.23858 66 0 68.2386 0 71C0 73.7614 2.23858 76 5 76Z" fill="black"/>
<path d="M38 76C40.7614 76 43 73.7614 43 71C43 68.2386 40.7614 66 38 66C35.2386 66 33 68.2386 33 71C33 73.7614 35.2386 76 38 76Z" fill="black"/>
<path d="M71 76C73.7614 76 76 73.7614 76 71C76 68.2386 73.7614 66 71 66C68.2386 66 66 68.2386 66 71C66 73.7614 68.2386 76 71 76Z" fill="black"/>
<path d="M104 76C106.761 76 109 73.7614 109 71C109 68.2386 106.761 66 104 66C101.239 66 99 68.2386 99 71C99 73.7614 101.239 76 104 76Z" fill="black"/>
<path d="M137 76C139.761 76 142 73.7614 142 71C142 68.2386 139.761 66 137 66C134.239 66 132 68.2386 132 71C132 73.7614 134.239 76 137 76Z" fill="black"/>
<path d="M5 109C7.76142 109 10 106.761 10 104C10 101.239 7.76142 99 5 99C2.23858 99 0 101.239 0 104C0 106.761 2.23858 109 5 109Z" fill="black"/>
<path d="M38 109C40.7614 109 43 106.761 43 104C43 101.239 40.7614 99 38 99C35.2386 99 33 101.239 33 104C33 106.761 35.2386 109 38 109Z" fill="black"/>
<path d="M71 109C73.7614 109 76 106.761 76 104C76 101.239 73.7614 99 71 99C68.2386 99 66 101.239 66 104C66 106.761 68.2386 109 71 109Z" fill="black"/>
<path d="M104 109C106.761 109 109 106.761 109 104C109 101.239 106.761 99 104 99C101.239 99 99 101.239 99 104C99 106.761 101.239 109 104 109Z" fill="black"/>
<path d="M137 109C139.761 109 142 106.761 142 104C142 101.239 139.761 99 137 99C134.239 99 132 101.239 132 104C132 106.761 134.239 109 137 109Z" fill="black"/>
</svg>
